<svg width="24" height="24" viewBox="0 0 24 24" fill="none" xmlns="http://www.w3.org/2000/svg">
<path d="M8.42499 17.125L3.92499 12.625C3.84165 12.5417 3.77932 12.4457 3.73799 12.337C3.69599 12.229 3.67499 12.1167 3.67499 12C3.67499 11.8833 3.69599 11.7707 3.73799 11.662C3.77932 11.554 3.84165 11.4583 3.92499 11.375L8.44999 6.84999C8.58332 6.71666 8.74999 6.64999 8.94999 6.64999C9.14999 6.64999 9.32499 6.72499 9.47499 6.87499C9.62499 7.02499 9.69999 7.19999 9.69999 7.39999C9.69999 7.59999 9.62499 7.77499 9.47499 7.92499L6.14999 11.25H19.95C20.1667 11.25 20.346 11.3207 20.488 11.462C20.6293 11.604 20.7 11.7833 20.7 12C20.7 12.2167 20.6293 12.3957 20.488 12.537C20.346 12.679 20.1667 12.75 19.95 12.75H6.14999L9.49999 16.1C9.63332 16.2333 9.69999 16.4 9.69999 16.6C9.69999 16.8 9.62499 16.975 9.47499 17.125C9.32499 17.275 9.14999 17.35 8.94999 17.35C8.74999 17.35 8.57499 17.275 8.42499 17.125Z" fill="#696A6B"/>
</svg>
