<svg width="16" height="16" viewBox="0 0 16 16" fill="none" xmlns="http://www.w3.org/2000/svg">
<path d="M4.2 14.3667C3.86667 14.3667 3.58333 14.25 3.35 14.0167C3.11667 13.7833 3 13.5 3 13.1667V5.33333C3 4.73333 3.18889 4.20822 3.56667 3.758C3.94444 3.30822 4.42222 3.02222 5 2.9V1.5H6.66667V2.83333H9.33333V1.5H11V2.9C11.5778 3.02222 12.0556 3.30822 12.4333 3.758C12.8111 4.20822 13 4.73333 13 5.33333V13.1667C13 13.5 12.8833 13.7833 12.65 14.0167C12.4167 14.25 12.1333 14.3667 11.8 14.3667H4.2ZM4.2 13.3667H11.8C11.8556 13.3667 11.9029 13.3471 11.942 13.308C11.9807 13.2693 12 13.2222 12 13.1667V5.33333C12 4.92222 11.8527 4.56933 11.558 4.27467C11.2638 3.98044 10.9111 3.83333 10.5 3.83333H5.5C5.08889 3.83333 4.736 3.98044 4.44133 4.27467C4.14711 4.56933 4 4.92222 4 5.33333V13.1667C4 13.2222 4.01956 13.2693 4.05867 13.308C4.09733 13.3471 4.14444 13.3667 4.2 13.3667ZM9.86667 10.5H10.8667V8.16667H5.13333V9.16667H9.86667V10.5ZM4.2 13.3667H4H12H11.8H4.2Z" fill="#D8000C"/>
</svg>
