<svg width="16" height="16" viewBox="0 0 16 16" fill="none" xmlns="http://www.w3.org/2000/svg">
<mask id="mask0_2_10112" style="mask-type:alpha" maskUnits="userSpaceOnUse" x="0" y="0" width="16" height="16">
<rect width="16" height="16" fill="#E8E9E8"/>
</mask>
<g mask="url(#mask0_2_10112)">
<path d="M9.63337 7.73331C9.42226 7.73331 9.24737 7.66109 9.10871 7.51665C8.9696 7.3722 8.90004 7.19998 8.90004 6.99998C8.90004 6.79998 8.9696 6.62776 9.10871 6.48331C9.24737 6.33887 9.42226 6.26665 9.63337 6.26665C9.83337 6.26665 10.0056 6.33887 10.15 6.48331C10.2945 6.62776 10.3667 6.79998 10.3667 6.99998C10.3667 7.19998 10.2945 7.3722 10.15 7.51665C10.0056 7.66109 9.83337 7.73331 9.63337 7.73331ZM6.36671 7.73331C6.16671 7.73331 5.99448 7.66109 5.85004 7.51665C5.7056 7.3722 5.63337 7.19998 5.63337 6.99998C5.63337 6.79998 5.7056 6.62776 5.85004 6.48331C5.99448 6.33887 6.16671 6.26665 6.36671 6.26665C6.57782 6.26665 6.75293 6.33887 6.89204 6.48331C7.03071 6.62776 7.10004 6.79998 7.10004 6.99998C7.10004 7.19998 7.03071 7.3722 6.89204 7.51665C6.75293 7.66109 6.57782 7.73331 6.36671 7.73331ZM8.00004 11.0833C7.40004 11.0833 6.85293 10.9222 6.35871 10.6C5.86404 10.2778 5.48337 9.85553 5.21671 9.33331H10.7834C10.5167 9.85553 10.1363 10.2778 9.64204 10.6C9.14737 10.9222 8.60004 11.0833 8.00004 11.0833ZM8.00004 13.6666C7.21115 13.6666 6.47515 13.5166 5.79204 13.2166C5.10848 12.9166 4.51115 12.5111 4.00004 12C3.48893 11.4889 3.08337 10.8915 2.78337 10.208C2.48337 9.52487 2.33337 8.78887 2.33337 7.99998C2.33337 7.21109 2.48337 6.47509 2.78337 5.79198C3.08337 5.10842 3.48893 4.51109 4.00004 3.99998C4.51115 3.48887 5.10848 3.08331 5.79204 2.78331C6.47515 2.48331 7.21115 2.33331 8.00004 2.33331C8.78893 2.33331 9.52493 2.48331 10.208 2.78331C10.8916 3.08331 11.4889 3.48887 12 3.99998C12.5112 4.51109 12.9167 5.10842 13.2167 5.79198C13.5167 6.47509 13.6667 7.21109 13.6667 7.99998C13.6667 8.78887 13.5167 9.52487 13.2167 10.208C12.9167 10.8915 12.5112 11.4889 12 12C11.4889 12.5111 10.8916 12.9166 10.208 13.2166C9.52493 13.5166 8.78893 13.6666 8.00004 13.6666ZM8.00004 12.6666C9.28893 12.6666 10.3889 12.2111 11.3 11.3C12.2112 10.3889 12.6667 9.28887 12.6667 7.99998C12.6667 6.71109 12.2112 5.61109 11.3 4.69998C10.3889 3.78887 9.28893 3.33331 8.00004 3.33331C7.91115 3.33331 7.8196 3.33598 7.72537 3.34131C7.63071 3.34709 7.53893 3.36109 7.45004 3.38331C7.39448 3.46109 7.36115 3.53331 7.35004 3.59998C7.33893 3.66665 7.33337 3.74442 7.33337 3.83331C7.33337 4.08887 7.42515 4.3082 7.60871 4.49131C7.79182 4.67487 8.01115 4.76665 8.26671 4.76665C8.37782 4.76665 8.47226 4.74998 8.55004 4.71665C8.62782 4.68331 8.71115 4.66665 8.80004 4.66665C8.90004 4.66665 8.98626 4.70554 9.05871 4.78331C9.13071 4.86109 9.16671 4.95553 9.16671 5.06665C9.16671 5.26665 9.06404 5.39998 8.85871 5.46665C8.65293 5.53331 8.4556 5.56665 8.26671 5.56665C7.78893 5.56665 7.38049 5.39709 7.04137 5.05798C6.70271 4.71931 6.53337 4.31109 6.53337 3.83331V3.71665C6.53337 3.68331 6.54449 3.63331 6.56671 3.56665C5.62226 3.87776 4.84737 4.43331 4.24204 5.23331C3.63626 6.03331 3.33337 6.95553 3.33337 7.99998C3.33337 9.28887 3.78893 10.3889 4.70004 11.3C5.61115 12.2111 6.71115 12.6666 8.00004 12.6666Z" fill="#D8000C"/>
</g>
</svg>
