<svg width="16" height="16" viewBox="0 0 16 16" fill="none" xmlns="http://www.w3.org/2000/svg">
<path d="M4.86663 13.6666C4.53329 13.6666 4.24996 13.55 4.01663 13.3166C3.78329 13.0833 3.66663 12.8 3.66663 12.4666V5.49997C3.66663 5.17775 3.78063 4.90264 4.00863 4.67464C4.23618 4.44708 4.51107 4.3333 4.83329 4.3333H6.16663V2.46664C6.16663 2.28886 6.22485 2.14442 6.34129 2.0333C6.45818 1.92219 6.59996 1.86664 6.76663 1.86664H9.23329C9.39996 1.86664 9.54174 1.92219 9.65863 2.0333C9.77507 2.14442 9.83329 2.28886 9.83329 2.46664V4.3333H11.1333C11.4666 4.3333 11.75 4.44997 11.9833 4.68331C12.2166 4.91664 12.3333 5.19997 12.3333 5.5333V12.4666C12.3333 12.8 12.2166 13.0833 11.9833 13.3166C11.75 13.55 11.4666 13.6666 11.1333 13.6666C11.1333 13.8333 11.0751 13.9722 10.9586 14.0833C10.8417 14.1944 10.7 14.25 10.5333 14.25C10.3666 14.25 10.2277 14.1944 10.1166 14.0833C10.0055 13.9722 9.94996 13.8333 9.94996 13.6666H6.04996C6.04996 13.8333 5.9944 13.9722 5.88329 14.0833C5.77218 14.1944 5.63329 14.25 5.46663 14.25C5.29996 14.25 5.15818 14.1944 5.04129 14.0833C4.92485 13.9722 4.86663 13.8333 4.86663 13.6666ZM6.96663 4.3333H9.03329V2.64997H6.96663V4.3333ZM4.86663 12.6666H11.1333C11.1888 12.6666 11.2362 12.6473 11.2753 12.6086C11.314 12.5695 11.3333 12.5222 11.3333 12.4666V5.5333C11.3333 5.47775 11.314 5.43042 11.2753 5.3913C11.2362 5.35264 11.1888 5.3333 11.1333 5.3333H4.86663C4.81107 5.3333 4.76396 5.35264 4.72529 5.3913C4.68618 5.43042 4.66663 5.47775 4.66663 5.5333V12.4666C4.66663 12.5222 4.68618 12.5695 4.72529 12.6086C4.76396 12.6473 4.81107 12.6666 4.86663 12.6666ZM5.43329 11.4333C5.43329 11.5444 5.47218 11.6389 5.54996 11.7166C5.62774 11.7944 5.72218 11.8333 5.83329 11.8333C5.9444 11.8333 6.03885 11.7944 6.11663 11.7166C6.1944 11.6389 6.23329 11.5444 6.23329 11.4333V6.56664C6.23329 6.45553 6.1944 6.36108 6.11663 6.2833C6.03885 6.20553 5.9444 6.16664 5.83329 6.16664C5.72218 6.16664 5.62774 6.20553 5.54996 6.2833C5.47218 6.36108 5.43329 6.45553 5.43329 6.56664V11.4333ZM7.59996 11.4333C7.59996 11.5444 7.63885 11.6389 7.71663 11.7166C7.7944 11.7944 7.88885 11.8333 7.99996 11.8333C8.11107 11.8333 8.20551 11.7944 8.28329 11.7166C8.36107 11.6389 8.39996 11.5444 8.39996 11.4333V6.56664C8.39996 6.45553 8.36107 6.36108 8.28329 6.2833C8.20551 6.20553 8.11107 6.16664 7.99996 6.16664C7.88885 6.16664 7.7944 6.20553 7.71663 6.2833C7.63885 6.36108 7.59996 6.45553 7.59996 6.56664V11.4333ZM9.76663 11.4333C9.76663 11.5444 9.80551 11.6389 9.88329 11.7166C9.96107 11.7944 10.0555 11.8333 10.1666 11.8333C10.2777 11.8333 10.3722 11.7944 10.45 11.7166C10.5277 11.6389 10.5666 11.5444 10.5666 11.4333V6.56664C10.5666 6.45553 10.5277 6.36108 10.45 6.2833C10.3722 6.20553 10.2777 6.16664 10.1666 6.16664C10.0555 6.16664 9.96107 6.20553 9.88329 6.2833C9.80551 6.36108 9.76663 6.45553 9.76663 6.56664V11.4333ZM4.66663 12.6666V5.3333V12.6666Z" fill="#D8000C"/>
</svg>
