<svg width="40" height="40" viewBox="0 0 40 40" fill="none" xmlns="http://www.w3.org/2000/svg">
<path d="M17.2 4.75833C17.6752 4.63328 18.1603 4.54964 18.65 4.50833C17.7431 4.72976 16.869 5.06875 16.05 5.51666C14.8635 6.14105 13.8348 7.02733 13.0417 8.10833C11.8751 9.79516 11.349 11.8431 11.5583 13.8833C11.6224 14.6804 11.7934 15.4652 12.0667 16.2167C12.2048 16.6186 12.3864 17.0042 12.6083 17.3667C13.1713 18.3233 13.8798 19.1864 14.7083 19.925C15.5571 20.6107 16.5187 21.1436 17.55 21.5C18.184 21.712 18.7236 22.1396 19.075 22.7083C19.5598 23.4926 19.8749 24.3698 20 25.2833C20 25.4583 20.05 25.6333 20.0667 25.8083C20.0833 25.9833 19.9833 25.9917 19.9167 26.0583C19.6149 26.2999 19.2612 26.4682 18.8833 26.55C18.3147 26.6696 17.7572 26.8369 17.2167 27.05C16.5917 27.3417 16.0083 27.7 15.3833 27.9833C14.7083 28.3097 13.9941 28.5477 13.2583 28.6917C12.8947 28.7583 12.522 28.7583 12.1583 28.6917C11.8986 28.6331 11.6468 28.5435 11.4083 28.425C10.6197 28.0805 9.88217 27.629 9.21666 27.0833C8.71147 26.6519 8.25589 26.1656 7.85833 25.6333C7.0385 24.5833 6.40693 23.3991 5.99166 22.1333C5.55986 20.8023 5.46537 19.3849 5.71666 18.0083C5.76018 17.8352 5.81587 17.6653 5.88333 17.5C6.13081 18.8627 6.58908 20.1784 7.24166 21.4C7.79553 22.4201 8.49761 23.3525 9.32499 24.1667C9.8803 24.6941 10.486 25.1658 11.1333 25.575C11.2687 25.6718 11.4279 25.7299 11.5938 25.7431C11.7596 25.7564 11.926 25.7242 12.075 25.65C12.075 25.4833 11.9 25.4167 11.775 25.3417C11.2128 25.029 10.6873 24.6544 10.2083 24.225C9.22229 23.3596 8.37863 22.3444 7.70833 21.2167C7.11773 20.2387 6.67146 19.1805 6.38333 18.075C6.28203 17.4835 6.24293 16.883 6.26666 16.2833C6.27118 15.4753 6.40626 14.6733 6.66666 13.9083C7.26225 12.2142 8.26028 10.69 9.57499 9.46666C9.00752 10.5055 8.61877 11.6323 8.42499 12.8C8.18033 14.1422 8.21152 15.5202 8.51666 16.85C8.88703 18.3819 9.60564 19.8077 10.6167 21.0167C11.7745 22.4056 13.2298 23.5163 14.875 24.2667C15.12 24.43 15.4174 24.4955 15.7083 24.45C15.7525 24.4358 15.7924 24.4107 15.8243 24.377C15.8561 24.3433 15.879 24.302 15.8906 24.2571C15.9022 24.2122 15.9023 24.1651 15.8909 24.1201C15.8794 24.0752 15.8567 24.0338 15.825 24C15.6584 23.8924 15.4793 23.8056 15.2917 23.7417C13.7885 23.0385 12.4359 22.0509 11.3083 20.8333C10.1941 19.5891 9.43176 18.0703 9.09999 16.4333C8.97592 15.8864 8.91165 15.3275 8.90833 14.7667C8.88498 13.6782 9.05715 12.5943 9.41666 11.5667C9.91802 10.1328 10.7453 8.8349 11.8333 7.775C13.3141 6.2977 15.1694 5.2519 17.2 4.75V4.75833Z" fill="#F68B1F"/>
<path d="M21.55 4.50833C21.7771 4.51551 22.003 4.54341 22.225 4.59166C23.9892 4.90365 25.6592 5.61325 27.1084 6.66666C28.4437 7.64962 29.538 8.92341 30.3084 10.3917C31.1117 11.9762 31.447 13.7568 31.275 15.525C31.0877 17.0979 30.534 18.605 29.6584 19.925C28.765 21.1522 27.6308 22.1843 26.325 22.9583C25.7451 23.3295 25.1312 23.6448 24.4917 23.9C24.4457 23.9155 24.404 23.9416 24.37 23.9763C24.336 24.0109 24.3106 24.0531 24.296 24.0994C24.2814 24.1457 24.2779 24.1948 24.2858 24.2427C24.2938 24.2906 24.3129 24.3359 24.3417 24.375C24.4466 24.4365 24.5659 24.469 24.6875 24.469C24.8091 24.469 24.9285 24.4365 25.0334 24.375C26.9984 23.5663 28.7127 22.249 30 20.5583C31.0007 19.2109 31.6508 17.6359 31.8917 15.975C32.1754 13.7652 31.771 11.5216 30.7334 9.55C31.0227 9.78129 31.2854 10.044 31.5167 10.3333C32.1232 11.0362 32.6359 11.815 33.0417 12.65C33.3942 13.3204 33.6549 14.0351 33.8167 14.775C33.9929 15.7344 34.0238 16.7148 33.9084 17.6833C33.8488 18.1481 33.7341 18.6041 33.5667 19.0417C32.83 21.0904 31.5754 22.9134 29.925 24.3333C28.668 25.3457 27.2279 26.1067 25.6834 26.575C25.2 26.725 24.7084 26.8583 24.2084 26.9667C24.0044 26.9931 23.8174 27.094 23.6834 27.25C23.6574 27.2802 23.6385 27.3158 23.6281 27.3542C23.6177 27.3927 23.616 27.4329 23.6232 27.4721C23.6304 27.5113 23.6463 27.5483 23.6697 27.5805C23.6931 27.6128 23.7234 27.6393 23.7584 27.6583C23.9929 27.7416 24.2489 27.7416 24.4834 27.6583C25.8299 27.2331 27.1308 26.6748 28.3667 25.9917C29.027 25.6306 29.6544 25.2123 30.2417 24.7417C31.5074 23.6703 32.5253 22.3368 33.225 20.8333C33.7529 19.7528 34.1233 18.6022 34.325 17.4167C34.325 17.4167 34.3667 17.5 34.3834 17.55C34.7921 19.2808 34.6493 21.0961 33.975 22.7417C33.6122 23.629 33.142 24.4686 32.575 25.2417C32.3054 25.6552 32.0015 26.0455 31.6667 26.4083C30.5887 27.3626 29.4029 28.1876 28.1334 28.8667C26.7739 29.571 25.3284 30.0949 23.8334 30.425C23.516 30.4561 23.2119 30.568 22.95 30.75C22.9154 30.7773 22.8873 30.8121 22.8681 30.8518C22.8488 30.8915 22.8388 30.935 22.8388 30.9792C22.8388 31.0233 22.8488 31.0668 22.8681 31.1065C22.8873 31.1462 22.9154 31.181 22.95 31.2083C23.1514 31.3081 23.3812 31.3346 23.6 31.2833C25.0699 31.0573 26.5007 30.6252 27.85 30C29.4205 29.1852 30.8681 28.1528 32.15 26.9333C32.0444 27.225 31.9075 27.5045 31.7417 27.7667C30.8994 29.1354 29.7602 30.2974 28.4084 31.1667C26.943 32.0944 25.3314 32.7677 23.6417 33.1583C21.6509 33.6509 19.575 33.6907 17.5667 33.275C16.5209 33.0697 15.4948 32.7741 14.5 32.3917C13.8698 32.1514 13.2548 31.8731 12.6584 31.5583C12.2848 31.3104 11.878 31.1168 11.45 30.9833C11.05 30.8583 10.6167 30.825 10.225 30.7333C9.28401 30.5433 8.36915 30.2411 7.50003 29.8333C6.75377 29.3934 6.04574 28.8916 5.38336 28.3333C6.12503 28.1417 6.82503 27.8167 7.58336 27.6833C7.9386 27.6004 8.30767 27.5962 8.66469 27.6711C9.02171 27.7459 9.35802 27.898 9.65003 28.1167C9.93929 28.346 10.2555 28.5391 10.5917 28.6917C11.3253 29.0785 12.1459 29.2707 12.975 29.25C13.8098 29.2001 14.6273 28.9907 15.3834 28.6333C16.6012 27.9981 17.8872 27.5032 19.2167 27.1583C19.6608 27.1137 20.083 26.9432 20.4334 26.6667C20.6485 26.2877 20.7195 25.8438 20.6334 25.4167C20.6389 24.553 20.8293 23.7006 21.1917 22.9167C21.3526 22.5782 21.5791 22.275 21.8581 22.0247C22.137 21.7743 22.4628 21.5819 22.8167 21.4583C23.589 21.1628 24.3223 20.7738 25 20.3C26.0115 19.529 26.861 18.5662 27.5 17.4667C28.005 16.6218 28.3443 15.6885 28.5 14.7167C28.8429 12.9333 28.6245 11.0875 27.875 9.43333C27.2837 8.12709 26.3545 7.00229 25.1834 6.175C24.0758 5.38498 22.8246 4.81883 21.5 4.50833H21.55Z" fill="#0000FF"/>
</svg>
