<svg width="42" height="42" viewBox="0 0 42 42" fill="none" xmlns="http://www.w3.org/2000/svg">
<g clip-path="url(#clip0_9_1312)">
<rect x="1" y="1" width="40" height="40" rx="20" fill="white"/>
<path d="M37.8917 20.5833C37.8933 23.1288 37.1399 25.6176 35.7267 27.7348C34.3135 29.852 32.3041 31.5024 29.9527 32.4773C27.6013 33.4522 25.0135 33.7077 22.5169 33.2115C20.0202 32.7153 17.7268 31.4897 15.9269 29.6898C14.127 27.8898 12.9014 25.5964 12.4052 23.0998C11.909 20.6031 12.1645 18.0154 13.1393 15.664C14.1142 13.3125 15.7647 11.3031 17.8819 9.88995C19.999 8.47678 22.4878 7.72335 25.0333 7.725C26.7219 7.725 28.394 8.05759 29.954 8.70378C31.514 9.34998 32.9315 10.2971 34.1255 11.4911C35.3195 12.6851 36.2667 14.1026 36.9129 15.6627C37.5591 17.2227 37.8917 18.8948 37.8917 20.5833Z" fill="#F68B1F"/>
<path d="M9.09998 6.83711C10.4166 6.77045 10.7666 7.59545 10.7666 8.55378C10.7666 10.2204 10.825 11.0038 11.8 11.0038C12.775 11.0038 12.8083 10.3538 12.9666 9.87045C13.1882 8.97419 13.7012 8.1769 14.425 7.60378C15.1252 7.24002 15.9026 7.05012 16.6916 7.05012C17.4807 7.05012 18.2581 7.24002 18.9583 7.60378C20.775 8.43711 23.9583 10.1954 24.6166 10.5621C25.6555 11.176 26.8537 11.4661 28.0583 11.3954C27.7249 11.6983 27.3247 11.918 26.8902 12.0367C26.4558 12.1555 25.9994 12.1699 25.5583 12.0788C24.3855 11.6564 23.2666 11.097 22.225 10.4121C21.575 9.97045 21.2083 9.80378 20.6833 10.0121C21.4113 10.7868 22.2217 11.4798 23.1 12.0788C23.5833 12.3204 24.1916 12.7288 24.675 12.5621C24.1083 13.0121 23.7083 13.1704 22.65 12.7288C21.601 12.2169 20.5876 11.635 19.6166 10.9871C19.175 10.7038 17.95 10.1538 17.5333 10.8288C17.9073 10.8057 18.2802 10.8895 18.6083 11.0704C18.975 11.2704 20.275 12.4038 20.7083 12.6038C21.2129 12.9255 21.7817 13.1331 22.375 13.2121C22.0575 13.3897 21.7052 13.4958 21.3425 13.5232C20.9798 13.5505 20.6155 13.4984 20.275 13.3704C19.5855 13.0319 18.9225 12.642 18.2916 12.2038C18.0433 12.0853 17.7695 12.0302 17.4947 12.0432C17.2199 12.0563 16.9526 12.1373 16.7166 12.2788C16.9901 12.2987 17.2567 12.374 17.5002 12.5001C17.7438 12.6261 17.9591 12.8003 18.1333 13.0121C18.375 13.2954 18.775 13.9788 19.5416 13.9371C19.2032 14.0975 18.83 14.1708 18.456 14.1504C18.082 14.13 17.719 14.0166 17.4 13.8204C16.9835 13.6473 16.5291 13.5862 16.0817 13.6433C15.6343 13.7003 15.2097 13.8734 14.85 14.1454C14.4593 14.5687 14.2424 15.1236 14.2424 15.6996C14.2424 16.2756 14.4593 16.8305 14.85 17.2538C15.825 18.1871 17.0416 18.1871 17.7666 18.4288C18.9818 18.9517 20.1068 19.6633 21.1 20.5371C22.35 21.5871 24.5333 23.6454 25.025 24.0121C25.3052 24.2596 25.6606 24.4057 26.0339 24.4269C26.4073 24.448 26.7769 24.3431 27.0833 24.1288C27.775 23.5704 27.7333 23.1204 27.325 21.8704C26.9166 20.6204 27.1666 19.9704 27.5333 18.6704C27.7333 18.9538 27.3666 19.7621 27.4916 20.6121C27.6166 21.4621 28.1916 22.8371 28.1333 23.3621C28.1103 23.7523 27.971 24.1267 27.7334 24.4371C27.4957 24.7475 27.1707 24.9797 26.8 25.1038C25.9666 25.2621 25.025 25.0204 23.6833 23.7288C22.3416 22.4371 20.6083 20.8538 19.925 20.3288C19.2416 19.8038 18.775 19.4954 18.2583 19.5454C18.5833 19.8621 20.2333 20.8538 20.9083 21.5038C22.0629 22.7122 23.2784 23.8609 24.55 24.9454C25.4833 25.5871 27.05 26.3538 30.1333 25.5454C29.5369 25.9353 28.8648 26.1947 28.1611 26.3067C27.4574 26.4187 26.738 26.3808 26.05 26.1954C24.3833 25.7871 23.175 24.4538 22.0416 23.3621C20.9083 22.2704 18.8916 20.4121 17.0583 19.9454C16.3666 19.8038 19.2416 21.0371 22.0583 23.9038C23.4201 25.3179 24.6372 26.8645 25.6916 28.5204C26.1833 29.2871 28 31.3121 28.3666 31.7954C27.6333 31.6704 26.8666 30.6621 26.1 29.7704C25.3333 28.8788 24.075 26.9371 23.0666 25.9288C21.6098 24.3801 20.0111 22.9712 18.2916 21.7204C16.675 20.7121 13.4 19.0954 11.7833 17.9621C10.2176 17.0095 9.01951 15.5559 8.38331 13.8371C8.07764 12.4537 8.22066 11.0088 8.79165 9.71211C9.07498 8.87878 9.79998 8.04545 9.10831 6.83711H9.09998ZM9.50831 20.1704C10.5778 20.6409 11.6956 20.9929 12.8416 21.2204C13.6245 24.2475 15.0897 27.0553 17.125 29.4288C19.5581 32.2008 22.8139 34.1221 26.4166 34.9121C23.825 35.4121 18.525 33.7454 14.925 30.3371C12.1515 27.5502 10.2665 24.0035 9.50831 20.1454V20.1704ZM8.67498 19.7288C9.44165 22.8788 10.575 26.9621 14.375 30.6038C17.5813 33.6502 21.8036 35.3991 26.225 35.5121C23.9666 36.0038 17.7333 35.3954 12.4333 31.3454C7.13331 27.2954 4.97498 21.1121 4.33331 15.4121C7.32498 16.6288 6.71665 19.1788 8.65831 19.7454L8.67498 19.7288Z" fill="#312782"/>
</g>
<rect x="0.5" y="0.5" width="41" height="41" rx="20.5" stroke="#E8E9E8" stroke-linecap="round" stroke-linejoin="round"/>
<defs>
<clipPath id="clip0_9_1312">
<rect x="1" y="1" width="40" height="40" rx="20" fill="white"/>
</clipPath>
</defs>
</svg>
