<svg width="42" height="42" viewBox="0 0 42 42" fill="none" xmlns="http://www.w3.org/2000/svg">
<g clip-path="url(#clip0_9_1554)">
<rect x="1" y="1" width="40" height="40" rx="20" fill="white"/>
<g clip-path="url(#clip1_9_1554)">
<path d="M35.7917 8.73334H34.7667C34.2167 8.7 33.675 8.91667 33.3084 9.33334C32.6834 10.0167 32.05 10.6833 31.4167 11.35C31.275 11.525 31.2167 11.75 31.2584 11.9667C31.275 12.075 31.3667 12.1417 31.475 12.125C31.5167 12.125 31.55 12.1 31.5834 12.075C31.6834 11.9833 31.7667 11.875 31.8167 11.75C31.9 11.5417 31.9584 11.5083 32.175 11.5417C32.2584 11.5583 32.3417 11.5833 32.4167 11.6333C32.6167 11.7667 32.8834 11.7667 33.0834 11.6333C33.7917 11.05 34.5 10.45 35.1584 9.8C35.425 9.53334 35.6834 9.25834 35.9167 8.96667V8.925C35.8917 8.85 36 8.7 35.7917 8.73334Z" fill="#F68B1F"/>
<path d="M22.1333 32.0916C22.3916 31.8083 22.6333 31.5416 22.8666 31.2583C23.6083 30.375 24.1916 29.3666 24.575 28.2833C25.2333 26.4833 24.8333 24.475 23.5416 23.0583C22.6833 22.0833 21.6 21.3333 20.3833 20.875C19.4583 20.5166 18.5 20.2666 17.525 20.125C16.3083 19.9666 15.075 19.9 13.85 19.9416C13.3833 19.9416 12.9166 19.9833 12.4583 20.0083C12.3916 20.0083 12.3166 19.9916 12.2666 19.95C12.1166 19.8166 11.975 19.675 11.8416 19.525C11.6083 19.275 11.3833 19.025 11.1583 18.7583C11.3666 18.6333 11.5916 18.55 11.8333 18.5C12.475 18.3583 13.1416 18.3083 13.8 18.3416C15.25 18.3833 16.6916 18.6166 18.0833 19.0333C18.3833 19.1083 18.675 19.25 18.9166 19.45V18.9416C18.9166 18.8666 18.8666 18.8583 18.825 18.8416C18.1083 18.4333 17.3333 18.1333 16.5333 17.9333C15.3583 17.65 14.1416 17.5666 12.9333 17.6666C12.25 17.7083 11.5666 17.825 10.9083 18.0166H10.8083C10.8083 18.0166 10.5916 18.0166 10.5 17.9333C10.225 17.5583 9.98331 17.1583 9.77498 16.7333C9.77498 16.6833 9.79442 16.6528 9.83331 16.6416C10.1 16.5333 10.3833 16.4666 10.6666 16.4416C11.625 16.3333 12.5916 16.35 13.5416 16.4833C14.7916 16.6166 16.025 16.85 17.2416 17.175C17.6916 17.2833 18.1333 17.4333 18.5583 17.6083C18.7166 17.6666 18.8583 17.7583 18.9833 17.875V17.2333C18.9833 17.1666 18.9333 17.1666 18.8916 17.15C18.125 16.825 17.3416 16.55 16.5416 16.3166C15.4916 16.0083 14.4166 15.7833 13.3333 15.6583C12.125 15.5166 10.9 15.525 9.69165 15.7C9.60831 15.6916 9.52498 15.6916 9.44165 15.7C9.31665 15.7 9.24998 15.7 9.17498 15.6C9.02498 15.3666 8.89998 15.1166 8.79998 14.8583C8.74165 14.7083 8.69165 14.5583 8.62498 14.4166C8.55831 14.275 8.62498 14.3166 8.68331 14.3C9.09165 14.2166 9.49998 14.1583 9.91665 14.125C11.8416 14.0166 13.775 14.2833 15.6 14.9C16.7166 15.25 17.8083 15.6916 18.8583 16.2166L18.9583 16.2666H19.0083V15.75C19.0083 15.575 18.95 15.675 18.9166 15.65C18.2583 15.2916 17.5833 14.975 16.8916 14.6916C15.5083 14.125 14.0666 13.725 12.5916 13.5C11.5666 13.3416 10.5166 13.2916 9.48331 13.375C9.08331 13.4083 8.69165 13.4666 8.29998 13.55C8.24998 13.575 8.19165 13.55 8.16665 13.5C7.94165 13.0916 7.74998 12.6666 7.58331 12.2333C7.58331 12.15 7.58331 12.1583 7.65831 12.15C8.38331 12.025 9.11665 11.95 9.84998 11.9333C12.925 11.8416 15.9666 12.575 18.6583 14.075C19.5333 14.5333 20.3666 15.0583 21.1583 15.6416C21.2166 15.675 21.25 15.7416 21.2416 15.8083C21.1416 17.375 21.4833 18.9416 22.2166 20.325C22.7583 21.3916 23.5833 22.2916 24.6 22.9166C25.9416 23.7416 27.6083 23.825 29.025 23.15C29.8583 22.775 30.6083 22.25 31.25 21.6C31.3333 21.5166 31.3583 21.5166 31.425 21.6C32.2 22.9583 32.2416 24.6083 31.5416 26C31.1083 26.9416 30.5 27.7916 29.75 28.5C28.1166 30.0833 26.1083 31.225 23.9166 31.8333C23.375 31.975 22.8166 32.0666 22.25 32.1083L22.1333 32.0916Z" fill="#0D2355"/>
<path d="M29.95 13.7667C29.5917 14.2583 29.3667 14.8333 29.3 15.4333C29.2333 16.0333 29.3 16.6333 29.5 17.2C29.6333 17.525 29.825 17.8333 30.0667 18.0917C30.4833 18.55 30.9417 18.9583 31.4333 19.3333C31.6917 19.5333 31.9417 19.7583 32.175 19.9917C32.6833 20.5167 33 21.2083 33.0667 21.9416C33.1417 22.6083 33.175 23.275 33.15 23.9417C33.075 25.775 32.4 27.5333 31.2333 28.9416C30.225 30.1416 28.975 31.1333 27.575 31.8333C26 32.65 24.3167 33.2333 22.575 33.5833L21.625 33.7666C21.4667 33.775 21.3167 33.775 21.1583 33.7666H16.375C16.375 33.7666 16.3333 33.7666 16.3167 33.7666L16.6667 33.6416C18.6 32.9666 20.3417 31.825 21.725 30.3083C22.4833 29.5 23.0417 28.5166 23.35 27.45C23.7083 26.1166 23.5333 24.7 22.8667 23.5C22.6833 23.1666 22.475 22.85 22.25 22.55C22.3167 22.575 22.3833 22.6083 22.4333 22.6583C23.25 23.2416 23.8417 24.1 24.1 25.075C24.2917 25.85 24.2917 26.6666 24.1 27.4417C23.8167 28.55 23.3333 29.5916 22.6667 30.5166C22.0167 31.5 21.225 32.3917 20.3167 33.15C20.3167 33.15 20.2583 33.1916 20.25 33.2416C20.7 33.2416 21.15 33.1667 21.5917 33.1C22.9667 32.8917 24.3083 32.5167 25.5917 32C26.9417 31.475 28.2 30.75 29.3333 29.8583C30.425 29.025 31.3 27.9417 31.8917 26.7C32.3917 25.6167 32.5917 24.4083 32.45 23.2167C32.3583 22.4083 32.15 21.6167 31.8333 20.8667C31.8167 20.8083 31.7667 20.775 31.7083 20.775C31.5417 20.7583 31.3667 20.8167 31.25 20.9417C30.5083 21.675 29.5833 22.2 28.575 22.4667C27.5083 22.7333 26.3917 22.6917 25.35 22.325C25.2917 22.3167 25.25 22.275 25.2417 22.2166C25.0667 21.5416 24.95 20.8583 24.8833 20.1666C24.8083 19.4333 24.7917 18.6917 24.8333 17.9583C24.8667 16.4 25.2667 14.875 26 13.5C26.6583 12.2917 27.75 11.375 29.05 10.9417C29.7583 10.7083 30.5083 10.5917 31.2583 10.6083C31.2583 10.6083 31.3583 10.6083 31.375 10.65C31.4083 10.7167 31.375 10.8 31.3167 10.8333C31.1333 10.9417 30.975 11.0917 30.85 11.2667C30.5 11.7667 30.5 12.4333 30.85 12.9333C31.0833 13.2917 31.55 13.4083 31.925 13.2167C32.0583 13.15 32.2167 13.1333 32.3667 13.175C32.525 13.2167 32.5583 13.275 32.55 13.4333C32.5 13.8 32.5 14.1833 32.55 14.55C32.6083 14.9 32.85 15.1917 33.1833 15.3083C33.4083 15.4 33.65 15.4583 33.9 15.475C33.9417 15.475 33.9833 15.4917 34.0167 15.525C34.1167 15.6417 34.2833 15.675 34.425 15.6167C34.5917 15.55 34.7583 15.6167 34.9167 15.6167C35.0583 15.75 35.0667 15.975 34.9333 16.125C34.9333 16.125 34.925 16.1417 34.9167 16.1417C34.7583 16.225 34.5833 16.275 34.4 16.2833C34.15 16.3 33.9083 16.3333 33.6667 16.3833C33.6 16.3833 33.5333 16.4166 33.475 16.4583L33.6333 16.525C33.9833 16.6583 34.2167 16.9833 34.2167 17.3583V17.95C34.2167 18.05 34.1417 18.1333 34.0417 18.15C33.9417 18.1333 33.8666 18.05 33.85 17.95L33.8 17.1666C33.8 17.1 33.775 17.0416 33.7167 17.0083C33.2333 16.6916 32.675 16.5 32.1 16.4583H31.675L31.9417 16.6917L32.9583 17.5917C33.1667 17.75 33.2667 18.0166 33.225 18.275C32.975 18.1916 32.725 18.1 32.4667 18.0417C32.2167 17.975 31.95 17.9416 31.6917 17.9333C31.6083 17.9416 31.525 17.8833 31.5167 17.7916C31.175 16.45 30.6667 15.15 30 13.9333L29.95 13.7667Z" fill="#0D2355"/>
<path d="M23.8417 21.4333C23.7917 21.4333 23.775 21.4333 23.75 21.375C22.7167 20.4 22.0167 19.1166 21.7667 17.7166C21.625 16.9666 21.5833 16.2083 21.65 15.45C21.6667 15.3583 21.625 15.2666 21.55 15.2083C19.5833 13.5083 17.2583 12.2833 14.75 11.6166C12.7083 11.1 10.6 10.8916 8.49999 11C8.01666 11 7.53333 11.0416 7.05833 11.0916C6.99999 11.1 6.94166 11.0583 6.93332 11C6.66666 10.3833 6.44999 9.74164 6.28333 9.08331C6.28333 8.98331 6.28332 8.97498 6.37499 8.97498C7.49166 8.97498 8.59999 9.08331 9.70833 9.21664C11.875 9.47498 14.0167 9.94164 16.0917 10.625C17.625 11.1 19.1 11.75 20.4917 12.5583C21.1583 12.9333 21.7667 13.4083 22.3 13.9583C22.45 14.1166 22.575 14.2916 22.6833 14.4833C22.7 14.5416 22.7 14.6083 22.6833 14.6666C22.475 15.8416 22.475 17.05 22.6833 18.225C22.8583 19.2833 23.225 20.3 23.75 21.2333C23.7917 21.2916 23.825 21.3583 23.8417 21.4333Z" fill="#0D2355"/>
<path d="M33.5 13.2C33.325 13.175 33.1583 13.175 32.9833 13.2C32.9083 13.2 32.8667 13.2 32.875 13.1167C32.875 12.9417 32.7917 12.7833 32.6667 12.6667C32.6 12.6 32.6167 12.575 32.6667 12.5333L33.7083 11.7C33.8667 11.5833 34.0833 11.5833 34.2417 11.7C34.9833 12.3417 35.4083 13.275 35.4083 14.2583C35.4083 14.525 35.35 14.7833 35.2333 15.0167C35.0917 15.3333 34.7333 15.5 34.4 15.4C34.3167 15.4 34.2666 15.3333 34.2666 15.2417C34.2666 15.15 34.2833 15.1667 34.3333 15.1667C34.675 15.0417 34.8917 14.7 34.8417 14.3333C34.825 14.1 34.7417 13.875 34.6 13.6833C34.4083 13.4167 34.0917 13.2667 33.7667 13.2667L33.5 13.2Z" fill="#0D2355"/>
<path d="M29.925 14.5417C30.4 15.7667 30.8666 16.9917 31.3333 18.2167V18.2917C31.3333 18.5 31.2833 18.5667 31.0833 18.525C30.8833 18.475 30.7083 18.3667 30.5833 18.2084C29.6833 17.25 29.3916 15.8584 29.85 14.625C29.8583 14.5834 29.8833 14.5584 29.925 14.5417Z" fill="#0D2355"/>
<path d="M34.4917 17.0416V16.675C34.4917 16.5583 34.4917 16.575 34.575 16.5666C34.7583 16.5416 34.9333 16.4666 35.0833 16.3666H35.1667C35.2667 16.475 35.2667 16.65 35.1667 16.7583C34.975 16.9416 34.825 17.175 34.75 17.4333C34.7333 17.5083 34.65 17.55 34.575 17.5333C34.4917 17.5333 34.4833 17.4583 34.4833 17.3916C34.4833 17.325 34.4917 17.1583 34.4917 17.0416Z" fill="#0D2355"/>
<path d="M29.5083 10.2083C29.5083 10.3167 29.5 10.4167 29.4584 10.5167C29.4584 10.5167 29.4584 10.5833 29.4 10.5833C29.3667 10.5833 29.3417 10.5583 29.3333 10.525C29.2583 10.3333 29.2583 10.1167 29.3333 9.925C29.3333 9.925 29.3334 9.85834 29.4 9.85834C29.4667 9.85834 29.4583 9.85834 29.475 9.925C29.5 10.0167 29.5167 10.1167 29.5083 10.2083Z" fill="#0D2355"/>
<path d="M24.3334 20.9417C24.2084 20.9417 24.0834 20.9167 23.975 20.8667C23.9417 20.8667 23.9167 20.8333 23.9167 20.8C23.9167 20.7583 23.9167 20.75 23.9834 20.7417C24.175 20.6667 24.3917 20.6667 24.5834 20.7417C24.5834 20.7417 24.6417 20.7417 24.6334 20.8083C24.625 20.875 24.6334 20.8583 24.575 20.8667C24.5 20.9083 24.4167 20.9333 24.3334 20.9417Z" fill="#0D2355"/>
<path d="M25.275 14.1C25.075 14.05 24.8916 13.9333 24.775 13.7583C24.7333 13.7 24.775 13.65 24.8333 13.6583C25.05 13.7 25.2333 13.825 25.3583 14.0083C25.4 14.0667 25.375 14.1 25.275 14.1Z" fill="#0D2355"/>
<path d="M30.9333 9.94998C30.9333 10.05 30.9166 10.15 30.8833 10.25C30.8833 10.25 30.8833 10.3166 30.8166 10.3166C30.7916 10.3166 30.7666 10.2833 30.7583 10.2583C30.6916 10.0583 30.6916 9.84165 30.7583 9.64165C30.7583 9.64165 30.7583 9.58331 30.8333 9.58331C30.8666 9.59165 30.8833 9.61665 30.8916 9.64998C30.925 9.74998 30.9416 9.84998 30.9333 9.94998Z" fill="#0D2355"/>
<path d="M24.2666 21.4583C24.3916 21.4583 24.5083 21.475 24.625 21.525C24.625 21.525 24.6833 21.525 24.6833 21.6C24.6833 21.675 24.6833 21.65 24.6166 21.6583C24.4166 21.7167 24.2 21.7 24.0083 21.6083C23.9833 21.6083 23.9583 21.5833 23.9583 21.55C23.9583 21.525 23.9916 21.5 24.0166 21.4917C24.1 21.4583 24.1833 21.45 24.2666 21.4583Z" fill="#0D2355"/>
<path d="M24.175 21.1167C24.2917 21.1167 24.4083 21.1333 24.5167 21.1833C24.5583 21.1833 24.5917 21.1833 24.5917 21.2583C24.5917 21.3333 24.5917 21.3167 24.5167 21.325C24.325 21.375 24.1167 21.3583 23.9333 21.275C23.9 21.275 23.875 21.2417 23.875 21.2083C23.875 21.1667 23.9167 21.1583 23.9417 21.15C24.0167 21.125 24.0917 21.1083 24.175 21.1167Z" fill="#0D2355"/>
<path d="M24.3334 19.6416C24.2167 19.6416 24.0917 19.6166 23.9834 19.575C23.9834 19.575 23.9167 19.575 23.9167 19.5C23.9167 19.425 23.9584 19.4416 23.9917 19.4333C24.1834 19.3833 24.3834 19.4 24.5667 19.475C24.5667 19.475 24.6417 19.475 24.6334 19.55C24.625 19.625 24.6334 19.6 24.5584 19.6083C24.4834 19.6333 24.4084 19.6416 24.3334 19.6416Z" fill="#0D2355"/>
<path d="M27.2834 11.6833V11.7833C27.2834 11.7833 27.225 11.7833 27.2 11.7833C27.05 11.65 26.9417 11.4667 26.9 11.2667V11.175C26.9 11.175 26.9667 11.175 26.9917 11.175C27.1417 11.3083 27.2417 11.4917 27.2834 11.6833Z" fill="#0D2355"/>
<path d="M35.1 11.3C35.0583 11.5 34.95 11.675 34.8 11.8083H34.7166C34.7166 11.8083 34.7 11.75 34.7166 11.725C34.75 11.5167 34.8583 11.325 35.025 11.1917H35.1C35.1 11.1917 35.1 11.25 35.1 11.3Z" fill="#0D2355"/>
<path d="M35.3834 11.6667C35.3334 11.8667 35.225 12.05 35.0667 12.1834C35.0417 12.2 35.0167 12.2 34.9917 12.1834C34.975 12.1584 34.975 12.125 34.9917 12.1C35.0334 11.9 35.1334 11.7084 35.2917 11.575C35.2917 11.575 35.35 11.525 35.3834 11.575C35.4167 11.625 35.3834 11.6167 35.3834 11.6667Z" fill="#0D2355"/>
<path d="M29.95 10.1667C29.95 10.2667 29.9333 10.375 29.9 10.4667C29.9 10.5 29.875 10.525 29.8416 10.5333C29.8416 10.5333 29.7833 10.5333 29.775 10.4667C29.7083 10.275 29.7083 10.0583 29.775 9.86665C29.775 9.86665 29.775 9.79999 29.8416 9.79999C29.9083 9.79999 29.9 9.84165 29.9166 9.87499C29.9416 9.96665 29.9583 10.0667 29.95 10.1667Z" fill="#0D2355"/>
<path d="M32.2417 9.76669C32.2417 9.86669 32.225 9.97503 32.1917 10.0667C32.1917 10.0667 32.1917 10.1334 32.125 10.125C32.0917 10.125 32.075 10.1 32.0667 10.075C31.9917 9.87503 31.9917 9.65836 32.0667 9.45836C32.0667 9.45836 32.0667 9.40002 32.125 9.40002C32.1834 9.40002 32.1834 9.40002 32.1917 9.46669C32.225 9.55836 32.2417 9.66669 32.2417 9.76669Z" fill="#0D2355"/>
<path d="M28.8834 10.3667C28.8834 10.2667 28.9 10.1583 28.9334 10.0667C28.9334 10.0667 28.9334 10 29 10C29.0334 10 29.0584 10.025 29.0667 10.0583C29.1334 10.2583 29.1334 10.4667 29.0667 10.6667C29.0667 10.7 29.0334 10.725 29 10.725C28.9584 10.725 28.9417 10.725 28.9334 10.6583C28.9 10.5667 28.8834 10.4667 28.8834 10.3667Z" fill="#0D2355"/>
<path d="M25.5917 13.6333C25.5917 13.6667 25.5694 13.6833 25.525 13.6833C25.3 13.6167 25.1167 13.4667 25.0167 13.2583C25.0167 13.2 25.0167 13.175 25.0833 13.1833C25.3 13.25 25.4833 13.4083 25.5833 13.6083V13.6333H25.5917Z" fill="#0D2355"/>
<path d="M24.5167 14.6834C24.6917 14.7 24.8584 14.7584 25 14.8584C25.0334 14.875 25.0584 14.9084 25.0584 14.95C25.0584 15 24.9917 15 24.95 15C24.775 15 24.6084 14.9417 24.4584 14.8417C24.4584 14.8417 24.35 14.7834 24.375 14.725C24.4 14.6667 24.4584 14.6834 24.5167 14.6834Z" fill="#0D2355"/>
<path d="M25.7916 13.3333C25.7916 13.4083 25.75 13.425 25.6916 13.3917C25.5083 13.2833 25.375 13.1 25.3167 12.8917C25.3167 12.825 25.3167 12.7917 25.3917 12.8083C25.5833 12.9333 25.725 13.1167 25.7916 13.3333Z" fill="#0D2355"/>
<path d="M24.675 15.8167C24.5083 15.8167 24.35 15.7667 24.2083 15.675C24.2083 15.675 24.1417 15.6333 24.15 15.5917C24.1583 15.55 24.2 15.5417 24.2417 15.5417C24.4333 15.525 24.625 15.575 24.7917 15.675C24.7917 15.675 24.8583 15.725 24.85 15.7667C24.8417 15.8083 24.7917 15.8167 24.75 15.8167H24.675Z" fill="#0D2355"/>
<path d="M24.6583 14.2C24.8333 14.2 25.0167 14.2417 25.1667 14.3334C25.2083 14.3334 25.2583 14.3917 25.2417 14.45C25.225 14.5084 25.1667 14.45 25.1167 14.45C24.95 14.4417 24.7917 14.3834 24.65 14.2917C24.65 14.2917 24.5417 14.2417 24.5583 14.175C24.575 14.1084 24.6083 14.2084 24.6583 14.2Z" fill="#0D2355"/>
<path d="M24.15 20.2833C24.275 20.2833 24.4083 20.3 24.525 20.35C24.525 20.35 24.6 20.35 24.5917 20.425C24.5833 20.4583 24.5583 20.475 24.525 20.4833C24.325 20.5333 24.1167 20.525 23.9333 20.4417C23.9 20.4333 23.8833 20.4083 23.875 20.375C23.875 20.325 23.9167 20.3167 23.95 20.3083C24.0167 20.2833 24.0833 20.275 24.15 20.2833Z" fill="#0D2355"/>
<path d="M24.4083 15.075C24.5833 15.0833 24.7583 15.15 24.9 15.2583C24.9 15.2583 24.9667 15.3 24.95 15.3417C24.9333 15.3833 24.8917 15.3917 24.85 15.3917C24.675 15.3917 24.5 15.3333 24.35 15.2333C24.3083 15.2333 24.25 15.1833 24.275 15.125C24.3 15.0667 24.3333 15.0833 24.4083 15.075Z" fill="#0D2355"/>
<path d="M34.7917 11C34.7583 11.2083 34.6417 11.3917 34.4833 11.525C34.4583 11.5417 34.4333 11.5417 34.4083 11.525V11.4417C34.4417 11.2417 34.55 11.0583 34.7 10.925C34.725 10.9 34.7667 10.9 34.7917 10.925V11Z" fill="#0D2355"/>
<path d="M31.625 9.81665C31.6167 9.71665 31.625 9.60831 31.675 9.51665C31.675 9.51665 31.675 9.45831 31.725 9.45831C31.775 9.45831 31.7833 9.45831 31.8 9.51665C31.8833 9.72498 31.9 9.94998 31.8333 10.1666C31.8333 10.1666 31.8333 10.225 31.775 10.225C31.7167 10.225 31.7167 10.225 31.7083 10.1666C31.65 10.0583 31.6167 9.94165 31.625 9.81665Z" fill="#0D2355"/>
<path d="M26.075 12.9333C26.075 12.9833 26.0333 13.0083 25.9833 12.9333C25.8 12.8167 25.6583 12.6333 25.6 12.425C25.6 12.3667 25.6 12.3333 25.6833 12.35C25.8833 12.4833 26.025 12.6917 26.075 12.9333Z" fill="#0D2355"/>
<path d="M35.5833 12.0666C35.5417 12.275 35.425 12.4583 35.2667 12.5916C35.2083 12.6416 35.1584 12.5916 35.1667 12.5333C35.1917 12.3166 35.3084 12.1166 35.4833 11.9833C35.5417 11.9416 35.575 11.975 35.5833 12.0666Z" fill="#0D2355"/>
<path d="M24.4166 17.0417C24.2833 17.0417 24.15 17.025 24.025 16.975C24.025 16.975 23.9583 16.975 23.9583 16.9084C23.9583 16.8417 23.9583 16.85 24.025 16.8417C24.225 16.775 24.4333 16.775 24.6333 16.8417C24.6333 16.8417 24.6833 16.8417 24.6833 16.9084C24.6833 16.975 24.6833 16.9584 24.6166 16.9667C24.5583 17.0084 24.4916 17.0334 24.4166 17.0417Z" fill="#0D2355"/>
<path d="M27.6 11.425C27.6 11.4833 27.6 11.525 27.5583 11.5416C27.5167 11.5583 27.4917 11.5416 27.4667 11.5C27.35 11.3583 27.275 11.1833 27.25 11C27.25 11 27.25 10.9166 27.2917 10.8916C27.3333 10.8666 27.3583 10.8916 27.3833 10.9416C27.5 11.0833 27.575 11.25 27.6 11.425Z" fill="#0D2355"/>
<path d="M28.2917 10.9C28.2917 10.975 28.2917 11.1 28.2083 11.1167C28.125 11.1333 28.1 11 28.075 10.925C28.0417 10.7833 28.0417 10.625 28.075 10.4833C28.075 10.4833 28.075 10.4083 28.1333 10.4C28.1917 10.3917 28.2 10.4 28.2167 10.4667C28.2667 10.6083 28.2917 10.75 28.2917 10.9Z" fill="#0D2355"/>
<path d="M26.95 11.9916V12.0833C26.95 12.0833 26.8917 12.1 26.8667 12.0833C26.7 11.9416 26.5917 11.75 26.5583 11.5416V11.4666C26.5583 11.4666 26.6167 11.45 26.6417 11.4666C26.8 11.6 26.9083 11.7833 26.95 11.9916Z" fill="#0D2355"/>
<path d="M24.55 16.2416C24.4 16.2416 24.25 16.2083 24.1167 16.1416C24.1167 16.1416 24.0333 16.1416 24.0417 16.0583C24.05 15.975 24.1 16 24.1333 16C24.325 15.975 24.5167 16 24.6917 16.0833C24.6917 16.0833 24.7583 16.0833 24.7583 16.1666C24.7583 16.25 24.7 16.225 24.6583 16.2333H24.55V16.2416Z" fill="#0D2355"/>
<path d="M26.65 12.2667V12.3667C26.65 12.3667 26.6 12.3833 26.575 12.3667C26.4084 12.225 26.3 12.0333 26.2583 11.825C26.2417 11.8 26.2417 11.775 26.2583 11.75H26.3333C26.5 11.8833 26.6084 12.0583 26.65 12.2667Z" fill="#0D2355"/>
<path d="M31.325 9.875C31.3416 9.96667 31.3416 10.0667 31.325 10.1583C31.325 10.1583 31.325 10.2333 31.25 10.2333C31.175 10.2333 31.2 10.1917 31.1916 10.1667C31.1333 9.975 31.1333 9.76667 31.1916 9.575C31.1916 9.575 31.1916 9.5 31.2666 9.5C31.3416 9.5 31.325 9.55 31.3333 9.58333C31.35 9.68333 31.3416 9.775 31.325 9.875Z" fill="#0D2355"/>
<path d="M30.4583 10.0417C30.4583 10.15 30.4416 10.25 30.4083 10.35C30.4083 10.35 30.4083 10.4083 30.3333 10.4083C30.2583 10.4083 30.2916 10.4083 30.2833 10.35C30.2083 10.1583 30.2083 9.93335 30.2833 9.74168C30.2833 9.74168 30.2833 9.68335 30.3333 9.68335C30.3833 9.68335 30.3916 9.68335 30.4083 9.74168C30.4416 9.84168 30.4583 9.94168 30.4583 10.0417Z" fill="#0D2355"/>
<path d="M26.3917 12.5917V12.6917C26.3917 12.6917 26.3333 12.6917 26.3083 12.6917C26.1417 12.55 26.0333 12.3583 26 12.15C25.9833 12.125 25.9833 12.1 26 12.075H26.075C26.2333 12.2083 26.35 12.3917 26.3917 12.5917Z" fill="#0D2355"/>
<path d="M27.9333 11.1833V11.3083C27.9333 11.3083 27.85 11.3083 27.825 11.2417C27.7167 11.0917 27.65 10.925 27.625 10.7417C27.625 10.7417 27.625 10.65 27.6667 10.6333C27.7083 10.6167 27.7417 10.6333 27.7667 10.6833C27.8667 10.8333 27.925 11.0083 27.9333 11.1833Z" fill="#0D2355"/>
<path d="M28.5 10.5417C28.5 10.4417 28.5084 10.3417 28.5417 10.2417C28.5417 10.2417 28.5417 10.1833 28.6084 10.175C28.6417 10.175 28.6667 10.2 28.675 10.2333C28.7417 10.4333 28.7417 10.6417 28.675 10.8417C28.675 10.875 28.65 10.9 28.6167 10.9C28.6167 10.9 28.5584 10.9 28.55 10.8417C28.5167 10.75 28.4917 10.6417 28.5 10.5417Z" fill="#0D2355"/>
<path d="M35.7333 12.5C35.6917 12.7083 35.575 12.8917 35.4167 13.0333C35.35 13.075 35.3083 13.0333 35.3167 12.9667C35.35 12.7583 35.4583 12.5667 35.6167 12.4333C35.6417 12.4167 35.675 12.4167 35.7 12.4333C35.7 12.4333 35.725 12.4583 35.7333 12.5Z" fill="#0D2355"/>
<path d="M24.3333 17.4667C24.2166 17.4667 24.0916 17.4417 23.9833 17.3917C23.9833 17.3917 23.9166 17.3917 23.925 17.3167C23.9333 17.2417 23.925 17.3167 23.9833 17.2667C24.1833 17.2 24.4 17.2167 24.5916 17.3084C24.5916 17.3084 24.65 17.3084 24.6416 17.375C24.6333 17.4417 24.6416 17.425 24.5833 17.4334C24.5 17.4584 24.4166 17.4667 24.3333 17.4667Z" fill="#0D2355"/>
<path d="M24.3333 17.95C24.2083 17.95 24.0917 17.9333 23.975 17.8917C23.975 17.8917 23.9083 17.8917 23.9083 17.8083C23.9083 17.725 23.9083 17.7583 23.975 17.75C24.1667 17.6833 24.3833 17.6833 24.575 17.75C24.575 17.75 24.625 17.75 24.625 17.8167C24.625 17.8833 24.625 17.8667 24.5667 17.8833C24.4917 17.9167 24.4167 17.9417 24.3333 17.95Z" fill="#0D2355"/>
<path d="M24.4083 16.6C24.2833 16.6 24.1583 16.5834 24.0417 16.525C24.0417 16.525 23.9833 16.525 23.9917 16.4584C23.9917 16.4334 24.025 16.4084 24.05 16.4C24.25 16.35 24.4583 16.3584 24.65 16.4417C24.6833 16.4417 24.7083 16.475 24.7083 16.5084C24.7083 16.55 24.7083 16.5667 24.6417 16.575C24.5667 16.6 24.4833 16.6084 24.4083 16.6Z" fill="#0D2355"/>
<path d="M24.2833 18.4417C24.1667 18.4417 24.0583 18.425 23.95 18.3833C23.95 18.3833 23.875 18.3833 23.875 18.3083C23.875 18.2333 23.9167 18.25 23.95 18.2417C24.1333 18.175 24.3417 18.175 24.525 18.2417C24.525 18.2417 24.6 18.2417 24.5917 18.325C24.5833 18.4083 24.5917 18.375 24.5083 18.3833C24.4333 18.4167 24.3583 18.4333 24.2833 18.4417Z" fill="#0D2355"/>
<path d="M24.2833 18.8333C24.1666 18.8333 24.05 18.8167 23.9416 18.7667C23.9416 18.7667 23.8666 18.7667 23.875 18.6917C23.8833 18.6167 23.9166 18.6417 23.95 18.6333C24.1333 18.575 24.3416 18.575 24.525 18.6333C24.525 18.6333 24.5916 18.6333 24.5916 18.7083C24.5916 18.7833 24.5916 18.7667 24.5166 18.775C24.4416 18.8083 24.3666 18.825 24.2833 18.8333Z" fill="#0D2355"/>
<path d="M24.3334 19.225C24.2084 19.225 24.0917 19.2084 23.975 19.1584C23.975 19.1584 23.9167 19.1584 23.9167 19.0917C23.9167 19.025 23.9167 19.0334 23.9834 19.025C24.1834 18.975 24.3917 18.9834 24.5834 19.0667C24.5834 19.0667 24.6417 19.0667 24.6334 19.1417C24.625 19.2167 24.6334 19.1834 24.575 19.2C24.5 19.2167 24.4167 19.225 24.3334 19.225Z" fill="#0D2355"/>
<path d="M24.3333 20.0833C24.2083 20.0833 24.0917 20.0667 23.975 20.0167C23.975 20.0167 23.9083 20.0167 23.9083 19.9417C23.9083 19.8667 23.95 19.8917 23.975 19.8833C24.1667 19.825 24.375 19.825 24.5667 19.8833C24.5667 19.8833 24.625 19.8833 24.625 19.9583C24.625 20.0333 24.625 20.0167 24.55 20.025C24.4833 20.0583 24.4083 20.075 24.3333 20.0833Z" fill="#0D2355"/>
<path d="M31.8333 12.8417C31.8333 12.9167 31.775 12.9667 31.6833 12.9667C31.5666 12.9667 31.4666 12.875 31.4583 12.7583C31.4583 12.6917 31.5083 12.6333 31.575 12.625C31.5833 12.625 31.5916 12.625 31.6 12.625C31.725 12.625 31.825 12.7167 31.8333 12.8417Z" fill="#0D2355"/>
<path d="M31.8333 12.15C31.8333 12.075 31.875 12.0084 31.9666 12.0167C32.0333 12.0167 32.0833 12.0584 32.0916 12.125C32.0916 12.1334 32.0916 12.1417 32.0916 12.15C32.1 12.2167 32.05 12.2834 31.9833 12.2917C31.975 12.2917 31.9666 12.2917 31.9583 12.2917C31.9083 12.2917 31.875 12.2334 31.8333 12.15Z" fill="#0D2355"/>
<path d="M34.3917 13.65C34.225 13.4917 34.0084 13.4 33.775 13.3917C33.625 13.3917 33.475 13.4083 33.3334 13.4667C33.0417 13.5583 32.8334 13.8083 32.775 14.1083C32.725 14.4083 32.85 14.7083 33.1 14.875C33.4417 15.125 33.9084 15.1417 34.2667 14.9167C34.6417 14.7 34.7667 14.225 34.55 13.85C34.5084 13.775 34.45 13.7083 34.3917 13.65ZM34.0667 14.675C33.7667 14.8083 33.4167 14.675 33.2834 14.3833C33.2584 14.325 33.2417 14.2583 33.2334 14.1917C33.2334 14.0417 33.3084 13.9 33.4417 13.825C33.7417 13.6667 34.1167 13.7833 34.275 14.0833C34.375 14.3083 34.2834 14.5667 34.0667 14.675Z" fill="#0D2355"/>
<path d="M33.7584 14.0583C33.9167 14.0583 34.075 14.1833 34.0667 14.3083C34.05 14.4166 33.95 14.5 33.8417 14.4916C33.6917 14.4916 33.5417 14.3666 33.5417 14.2416C33.55 14.1333 33.65 14.05 33.7584 14.0583Z" fill="#0D2355"/>
</g>
</g>
<rect x="0.5" y="0.5" width="41" height="41" rx="20.5" stroke="#E8E9E8" stroke-linecap="round" stroke-linejoin="round"/>
<defs>
<clipPath id="clip0_9_1554">
<rect x="1" y="1" width="40" height="40" rx="20" fill="white"/>
</clipPath>
<clipPath id="clip1_9_1554">
<rect width="40" height="40" fill="white" transform="translate(1 1)"/>
</clipPath>
</defs>
</svg>
