<svg width="42" height="42" viewBox="0 0 42 42" fill="none" xmlns="http://www.w3.org/2000/svg">
<g clip-path="url(#clip0_9_1493)">
<rect x="1" y="1" width="40" height="40" rx="20" fill="white"/>
<path d="M35.8583 31.9667C32.525 32.4833 28.9083 33.1167 25.5 32.5167C20.7917 31.85 16.2333 28.7667 14.8083 24.0917C14.4418 22.9763 14.2342 21.8149 14.1917 20.6417C14.2583 19.0167 14.8417 17.3667 14.575 15.7583C13.625 13.6667 10.1333 15.7 9.39166 13.4167C9.16666 12.4833 10.3167 11.8167 9.95 10.8583C9.825 10.2 9.11666 9.83332 9.16666 9.12499C9 7.63332 7.75 8.23332 7.89166 9.45832C7.90143 9.49925 7.89683 9.54229 7.87862 9.58023C7.86041 9.61816 7.82971 9.64868 7.79166 9.66665C5.975 10.6167 7.55833 11.7 7.10833 13.05C6.375 16.175 5.44166 17.7667 6.575 21.0833C7.11665 22.7684 7.94552 24.3472 9.025 25.75C9.44802 26.3338 9.90725 26.8904 10.4 27.4167C10.3152 27.0315 10.1807 26.6589 10 26.3083C9.65 25.1667 8.78333 24.1 8.825 22.8833C9.025 22.1667 9.70833 22.8833 9.79166 23.3C10.8575 25.9951 12.469 28.4407 14.525 30.4833C14.8083 30.7667 17.025 32.8917 17.1 32.2917C16.325 31.3667 15.4833 30.4917 14.7083 29.5583C13.7272 28.4329 12.9312 27.1586 12.35 25.7833C12.1833 25.4833 12.1833 24.85 12.675 24.95C13.4083 25.1333 13.5083 26.0167 13.8917 26.55C16.325 30.3333 20.6833 32.6167 25 33.5C28.6902 34.1654 32.4966 33.6279 35.8583 31.9667Z" fill="#F68B1F"/>
</g>
<rect x="0.5" y="0.5" width="41" height="41" rx="20.5" stroke="#E8E9E8" stroke-linecap="round" stroke-linejoin="round"/>
<defs>
<clipPath id="clip0_9_1493">
<rect x="1" y="1" width="40" height="40" rx="20" fill="white"/>
</clipPath>
</defs>
</svg>
