<svg width="81" height="16" viewBox="0 0 81 16" fill="none" xmlns="http://www.w3.org/2000/svg">
<path d="M9.57512 11.1785C9.44576 10.5757 9.14203 10.0555 8.72863 9.66028C8.29836 9.20255 7.02441 7.8862 6.00075 6.83711V6.8428L4.71274 5.51225C4.51026 5.30186 4.17561 5.29902 3.9675 5.50372L3.40224 6.0638C2.87916 6.58408 2.87072 7.43416 3.38255 7.96297C3.38255 7.96297 6.59695 11.3064 6.65319 11.3775C6.90348 11.639 6.72069 12.0769 6.36072 12.0769H1.94549C1.14682 12.0769 0.5 12.7308 0.5 13.5382V14.2205C0.5 14.5134 0.736229 14.7522 1.02589 14.7522C1.02589 14.7522 6.77693 14.7579 6.89786 14.7522C7.0441 14.7437 7.19033 14.7238 7.33938 14.6925C8.91705 14.3456 9.91821 12.7734 9.57512 11.1785Z" fill="#065BAA"/>
<path d="M51.6829 9.47275C51.6379 9.41873 49.9533 7.67878 49.1321 6.83439V6.84008L47.8441 5.50952C47.6417 5.29913 47.307 5.29629 47.0989 5.50099L46.5336 6.06107C46.3396 6.2544 46.2187 6.49038 46.1652 6.74057C45.569 6.56145 44.9082 6.53018 44.2163 6.72351C42.9227 7.08742 41.9159 8.18484 41.6797 9.52108C41.511 10.4621 41.7134 11.3463 42.155 12.0656H37.9675C37.5232 12.0656 37.1632 11.7046 37.1632 11.2554V8.76483C37.1632 8.53454 36.9804 8.34974 36.7526 8.34974H35.8471C35.1131 8.34974 34.5169 8.95247 34.5169 9.69451V11.2184C34.5169 11.6875 34.1401 12.0685 33.676 12.0685C33.212 12.0685 32.8352 11.6875 32.8352 11.2184V8.76483C32.8352 8.53454 32.6524 8.34974 32.4246 8.34974H31.5191C30.7851 8.34974 30.1889 8.95247 30.1889 9.69451V11.2184C30.1889 11.6875 29.812 12.0685 29.348 12.0685C28.884 12.0685 28.5071 11.6875 28.5071 11.2184V8.76483C28.5071 8.53454 28.3243 8.34974 28.0965 8.34974H27.191C26.457 8.34974 25.8608 8.95247 25.8608 9.69451V11.2582C25.8608 11.7074 25.5008 12.0713 25.0565 12.0713H21.8646C21.4203 12.0713 21.0603 11.7074 21.0603 11.2582V8.76767C21.0603 8.53738 20.8775 8.35258 20.6497 8.35258H19.7442C19.0102 8.35258 18.414 8.95531 18.414 9.69735V11.261C18.414 11.7102 18.054 12.0742 17.6097 12.0742H14.3503C13.9059 12.0742 13.546 11.7102 13.546 11.261V3.44261C13.546 3.21233 13.3632 3.02753 13.1354 3.02753H12.2299C11.4959 3.02753 10.8997 3.63025 10.8997 4.37229V12.313C10.8997 13.6577 11.9767 14.7552 13.3098 14.7552H44.3851C44.5285 14.7552 44.6326 14.7239 44.7197 14.6898C44.866 14.6329 45.0994 14.5362 45.2484 14.4709C45.4762 14.3713 45.5887 14.4595 45.5887 14.4595C46.902 15.1901 47.9369 15.4091 48.5078 15.4745C48.5472 15.4801 48.5866 15.483 48.6259 15.4858C48.7637 15.4972 48.8622 15.5 48.924 15.5C48.969 15.5 48.9915 15.5 48.9915 15.5C50.9573 15.4631 52.5434 13.8425 52.5434 11.8439C52.5434 11.0364 52.2791 10.2916 51.8403 9.68882C51.8403 9.68882 51.756 9.56089 51.6772 9.47844L51.6829 9.47275ZM46.6911 10.428C46.5927 11.0848 46.0612 11.6193 45.4115 11.7188C44.371 11.8808 43.488 10.9853 43.6455 9.93332C43.7439 9.27658 44.2754 8.74208 44.925 8.64258C45.9656 8.48052 46.8486 9.37609 46.6911 10.428ZM50.4539 12.0855C50.3555 12.7423 49.824 13.2768 49.1743 13.3763C48.1338 13.5355 47.2508 12.6428 47.4111 11.5908C47.5095 10.9341 48.041 10.3996 48.6878 10.2972C49.7283 10.1352 50.6142 11.0307 50.4539 12.0827V12.0855Z" fill="#065BAA"/>
<path d="M61.9588 3.01318C61.2277 3.01318 60.6371 3.61023 60.6371 4.34942C60.6371 5.08862 61.2277 5.68566 61.9588 5.68566C62.69 5.68566 63.2806 5.08862 63.2806 4.34942C63.2806 3.61023 62.69 3.01318 61.9588 3.01318Z" fill="#065BAA"/>
<path d="M33.1892 3.01318C32.458 3.01318 31.8674 3.61023 31.8674 4.34942C31.8674 5.08862 32.458 5.68566 33.1892 5.68566C33.9204 5.68566 34.5109 5.08862 34.5109 4.34942C34.5109 3.61023 33.9204 3.01318 33.1892 3.01318Z" fill="#065BAA"/>
<path d="M30.315 3.01318C29.5839 3.01318 28.9933 3.61023 28.9933 4.34942C28.9933 5.08862 29.5839 5.68566 30.315 5.68566C31.0462 5.68566 31.6368 5.08862 31.6368 4.34942C31.6368 3.61023 31.0462 3.01318 30.315 3.01318Z" fill="#065BAA"/>
<path d="M31.7578 0.5C31.0266 0.5 30.436 1.09704 30.436 1.83624C30.436 2.57543 31.0266 3.17248 31.7578 3.17248C32.489 3.17248 33.0795 2.57543 33.0795 1.83624C33.0795 1.09704 32.489 0.5 31.7578 0.5Z" fill="#065BAA"/>
<path d="M19.7018 3.01318C18.9706 3.01318 18.38 3.61023 18.38 4.34942C18.38 5.08862 18.9706 5.68566 19.7018 5.68566C20.4329 5.68566 21.0235 5.08862 21.0235 4.34942C21.0235 3.61023 20.4329 3.01318 19.7018 3.01318Z" fill="#065BAA"/>
<path d="M16.8279 3.01318C16.0967 3.01318 15.5061 3.61023 15.5061 4.34942C15.5061 5.08862 16.0967 5.68566 16.8279 5.68566C17.559 5.68566 18.1496 5.08862 18.1496 4.34942C18.1496 3.61023 17.559 3.01318 16.8279 3.01318Z" fill="#065BAA"/>
<path d="M80.5 11.8382C80.5 11.0308 80.2356 10.2859 79.7969 9.68318C79.7969 9.68318 79.7125 9.55524 79.6338 9.47279C79.5888 9.41877 77.9043 7.67882 77.0831 6.83443V6.84012L75.7951 5.50956C75.5926 5.29917 75.2579 5.29633 75.0498 5.50103L74.4846 6.06112C74.2905 6.25444 74.1696 6.49042 74.1162 6.74061C73.52 6.56149 72.8591 6.53022 72.1673 6.72355C70.8737 7.08746 69.8669 8.18488 69.6306 9.52112C69.4619 10.4622 69.6644 11.3464 70.1059 12.0657H68.4158H65.1479L64.9764 12.0628C65.311 11.5141 65.5079 10.8716 65.5079 10.1807C65.5079 8.1991 63.919 6.59277 61.9588 6.59277C59.9987 6.59277 58.4098 8.1991 58.4098 10.1807C58.4098 10.8716 58.6066 11.517 58.9413 12.0628L58.9469 12.0714H55.2235C54.4895 12.0714 53.8933 12.6741 53.8933 13.4161V14.3401C53.8933 14.5704 54.0761 14.7552 54.3039 14.7552H68.4129L71.9029 14.7524H72.3388C72.4823 14.7524 72.5863 14.7211 72.6735 14.687C72.8197 14.6301 73.0531 14.5334 73.2022 14.4681C73.43 14.3685 73.5425 14.4567 73.5425 14.4567C74.8558 15.1873 75.8907 15.4063 76.4616 15.4717C76.501 15.4773 76.5403 15.4802 76.5797 15.483C76.7175 15.4944 76.8159 15.4972 76.8778 15.4972C76.9228 15.4972 76.9453 15.4972 76.9453 15.4972C78.9111 15.4603 80.4972 13.8397 80.4972 11.8411L80.5 11.8382ZM61.9616 11.7387C61.1123 11.7387 60.4205 11.0422 60.4205 10.1807C60.4205 9.31927 61.1095 8.62271 61.9616 8.62271C62.8138 8.62271 63.5028 9.31927 63.5028 10.1807C63.5028 11.0422 62.8138 11.7387 61.9616 11.7387ZM74.6449 10.4281C74.5464 11.0848 74.0149 11.6193 73.3653 11.7188C72.3248 11.8809 71.4417 10.9853 71.5992 9.93337C71.6976 9.27662 72.2292 8.74212 72.8788 8.64262C73.9193 8.48056 74.8024 9.37613 74.6449 10.4281ZM78.4077 12.0856C78.3092 12.7423 77.7777 13.2768 77.1281 13.3763C76.0876 13.5355 75.2045 12.6428 75.3648 11.5909C75.4632 10.9341 75.9948 10.3996 76.6416 10.2973C77.6821 10.1352 78.568 11.0308 78.4077 12.0827V12.0856Z" fill="#065BAA"/>
</svg>
