<svg width="119" height="19" viewBox="0 0 119 19" fill="none" xmlns="http://www.w3.org/2000/svg">
<g clip-path="url(#clip0_168_185)">
<path d="M92.1776 8.24831C94.4848 8.24831 96.3552 6.40186 96.3552 4.12416C96.3552 1.84645 94.4848 0 92.1776 0C89.8704 0 88 1.84645 88 4.12416C88 6.40186 89.8704 8.24831 92.1776 8.24831Z" fill="#065BAA"/>
<path d="M103.501 8.24831C105.808 8.24831 107.679 6.40186 107.679 4.12416C107.679 1.84645 105.808 0 103.501 0C101.194 0 99.3236 1.84645 99.3236 4.12416C99.3236 6.40186 101.194 8.24831 103.501 8.24831Z" fill="#065BAA"/>
<path d="M92.1776 18.0024C94.4848 18.0024 96.3552 16.1559 96.3552 13.8782C96.3552 11.6005 94.4848 9.75406 92.1776 9.75406C89.8704 9.75406 88 11.6005 88 13.8782C88 16.1559 89.8704 18.0024 92.1776 18.0024Z" fill="#BD1A8D"/>
<path d="M103.501 18.0023C105.808 18.0023 107.679 16.1559 107.679 13.8782C107.679 11.6005 105.808 9.75403 103.501 9.75403C101.194 9.75403 99.3236 11.6005 99.3236 13.8782C99.3236 16.1559 101.194 18.0023 103.501 18.0023Z" fill="#065BAA"/>
<path d="M114.822 18.0023C117.13 18.0023 119 16.1559 119 13.8782C119 11.6005 117.13 9.75403 114.822 9.75403C112.515 9.75403 110.645 11.6005 110.645 13.8782C110.645 16.1559 112.515 18.0023 114.822 18.0023Z" fill="#BD1A8D"/>
<path d="M9.07512 11.6785C8.94576 11.0757 8.64203 10.5555 8.22863 10.1603C7.79836 9.70255 6.52441 8.3862 5.50075 7.33711V7.3428L4.21274 6.01225C4.01026 5.80186 3.67561 5.79902 3.4675 6.00372L2.90224 6.5638C2.37916 7.08408 2.37072 7.93416 2.88255 8.46297C2.88255 8.46297 6.09695 11.8064 6.15319 11.8775C6.40348 12.139 6.22069 12.5769 5.86072 12.5769H1.44549C0.646817 12.5769 0 13.2308 0 14.0382V14.7205C0 15.0134 0.236229 15.2522 0.52589 15.2522C0.52589 15.2522 6.27693 15.2579 6.39786 15.2522C6.5441 15.2437 6.69033 15.2238 6.83938 15.1925C8.41705 14.8456 9.41821 13.2734 9.07512 11.6785Z" fill="#065BAA"/>
<path d="M51.1829 9.97275C51.1379 9.91873 49.4533 8.17878 48.6321 7.33439V7.34008L47.3441 6.00952C47.1417 5.79913 46.807 5.79629 46.5989 6.00099L46.0336 6.56107C45.8396 6.7544 45.7187 6.99038 45.6652 7.24057C45.069 7.06145 44.4082 7.03018 43.7163 7.22351C42.4227 7.58742 41.4159 8.68484 41.1797 10.0211C41.011 10.9621 41.2134 11.8463 41.655 12.5656H37.4675C37.0232 12.5656 36.6632 12.2046 36.6632 11.7554V9.26483C36.6632 9.03454 36.4804 8.84974 36.2526 8.84974H35.3471C34.6131 8.84974 34.0169 9.45247 34.0169 10.1945V11.7184C34.0169 12.1875 33.6401 12.5685 33.176 12.5685C32.712 12.5685 32.3352 12.1875 32.3352 11.7184V9.26483C32.3352 9.03454 32.1524 8.84974 31.9246 8.84974H31.0191C30.2851 8.84974 29.6889 9.45247 29.6889 10.1945V11.7184C29.6889 12.1875 29.312 12.5685 28.848 12.5685C28.384 12.5685 28.0071 12.1875 28.0071 11.7184V9.26483C28.0071 9.03454 27.8243 8.84974 27.5965 8.84974H26.691C25.957 8.84974 25.3608 9.45247 25.3608 10.1945V11.7582C25.3608 12.2074 25.0008 12.5713 24.5565 12.5713H21.3646C20.9203 12.5713 20.5603 12.2074 20.5603 11.7582V9.26767C20.5603 9.03738 20.3775 8.85258 20.1497 8.85258H19.2442C18.5102 8.85258 17.914 9.45531 17.914 10.1974V11.761C17.914 12.2102 17.554 12.5742 17.1097 12.5742H13.8503C13.4059 12.5742 13.046 12.2102 13.046 11.761V3.94261C13.046 3.71233 12.8632 3.52753 12.6354 3.52753H11.7299C10.9959 3.52753 10.3997 4.13025 10.3997 4.87229V12.813C10.3997 14.1577 11.4767 15.2552 12.8098 15.2552H43.8851C44.0285 15.2552 44.1326 15.2239 44.2197 15.1898C44.366 15.1329 44.5994 15.0362 44.7484 14.9709C44.9762 14.8713 45.0887 14.9595 45.0887 14.9595C46.402 15.6901 47.4369 15.9091 48.0078 15.9745C48.0472 15.9801 48.0866 15.983 48.1259 15.9858C48.2637 15.9972 48.3622 16 48.424 16C48.469 16 48.4915 16 48.4915 16C50.4573 15.9631 52.0434 14.3425 52.0434 12.3439C52.0434 11.5364 51.7791 10.7916 51.3403 10.1888C51.3403 10.1888 51.256 10.0609 51.1772 9.97844L51.1829 9.97275ZM46.1911 10.928C46.0927 11.5848 45.5612 12.1193 44.9115 12.2188C43.871 12.3808 42.988 11.4853 43.1455 10.4333C43.2439 9.77658 43.7754 9.24208 44.425 9.14258C45.4656 8.98052 46.3486 9.87609 46.1911 10.928ZM49.9539 12.5855C49.8555 13.2423 49.324 13.7768 48.6743 13.8763C47.6338 14.0355 46.7508 13.1428 46.9111 12.0908C47.0095 11.4341 47.541 10.8996 48.1878 10.7972C49.2283 10.6352 50.1142 11.5307 49.9539 12.5827V12.5855Z" fill="#065BAA"/>
<path d="M61.4588 3.51318C60.7277 3.51318 60.1371 4.11023 60.1371 4.84942C60.1371 5.58862 60.7277 6.18566 61.4588 6.18566C62.19 6.18566 62.7806 5.58862 62.7806 4.84942C62.7806 4.11023 62.19 3.51318 61.4588 3.51318Z" fill="#065BAA"/>
<path d="M32.6892 3.51318C31.958 3.51318 31.3674 4.11023 31.3674 4.84942C31.3674 5.58862 31.958 6.18566 32.6892 6.18566C33.4204 6.18566 34.0109 5.58862 34.0109 4.84942C34.0109 4.11023 33.4204 3.51318 32.6892 3.51318Z" fill="#065BAA"/>
<path d="M29.815 3.51318C29.0839 3.51318 28.4933 4.11023 28.4933 4.84942C28.4933 5.58862 29.0839 6.18566 29.815 6.18566C30.5462 6.18566 31.1368 5.58862 31.1368 4.84942C31.1368 4.11023 30.5462 3.51318 29.815 3.51318Z" fill="#065BAA"/>
<path d="M31.2578 1C30.5266 1 29.936 1.59704 29.936 2.33624C29.936 3.07543 30.5266 3.67248 31.2578 3.67248C31.989 3.67248 32.5795 3.07543 32.5795 2.33624C32.5795 1.59704 31.989 1 31.2578 1Z" fill="#065BAA"/>
<path d="M19.2018 3.51318C18.4706 3.51318 17.88 4.11023 17.88 4.84942C17.88 5.58862 18.4706 6.18566 19.2018 6.18566C19.9329 6.18566 20.5235 5.58862 20.5235 4.84942C20.5235 4.11023 19.9329 3.51318 19.2018 3.51318Z" fill="#065BAA"/>
<path d="M16.3279 3.51318C15.5967 3.51318 15.0061 4.11023 15.0061 4.84942C15.0061 5.58862 15.5967 6.18566 16.3279 6.18566C17.059 6.18566 17.6496 5.58862 17.6496 4.84942C17.6496 4.11023 17.059 3.51318 16.3279 3.51318Z" fill="#065BAA"/>
<path d="M80 12.3382C80 11.5308 79.7356 10.7859 79.2969 10.1832C79.2969 10.1832 79.2125 10.0552 79.1338 9.97279C79.0888 9.91877 77.4043 8.17882 76.5831 7.33443V7.34012L75.2951 6.00956C75.0926 5.79917 74.7579 5.79633 74.5498 6.00103L73.9846 6.56112C73.7905 6.75444 73.6696 6.99042 73.6162 7.24061C73.02 7.06149 72.3591 7.03022 71.6673 7.22355C70.3737 7.58746 69.3669 8.68488 69.1306 10.0211C68.9619 10.9622 69.1644 11.8464 69.6059 12.5657H67.9158H64.6479L64.4764 12.5628C64.811 12.0141 65.0079 11.3716 65.0079 10.6807C65.0079 8.6991 63.419 7.09277 61.4588 7.09277C59.4987 7.09277 57.9098 8.6991 57.9098 10.6807C57.9098 11.3716 58.1066 12.017 58.4413 12.5628L58.4469 12.5714H54.7235C53.9895 12.5714 53.3933 13.1741 53.3933 13.9161V14.8401C53.3933 15.0704 53.5761 15.2552 53.8039 15.2552H67.9129L71.4029 15.2524H71.8388C71.9823 15.2524 72.0863 15.2211 72.1735 15.187C72.3197 15.1301 72.5531 15.0334 72.7022 14.9681C72.93 14.8685 73.0425 14.9567 73.0425 14.9567C74.3558 15.6873 75.3907 15.9063 75.9616 15.9717C76.001 15.9773 76.0403 15.9802 76.0797 15.983C76.2175 15.9944 76.3159 15.9972 76.3778 15.9972C76.4228 15.9972 76.4453 15.9972 76.4453 15.9972C78.4111 15.9603 79.9972 14.3397 79.9972 12.3411L80 12.3382ZM61.4616 12.2387C60.6123 12.2387 59.9205 11.5422 59.9205 10.6807C59.9205 9.81927 60.6095 9.12271 61.4616 9.12271C62.3138 9.12271 63.0028 9.81927 63.0028 10.6807C63.0028 11.5422 62.3138 12.2387 61.4616 12.2387ZM74.1449 10.9281C74.0464 11.5848 73.5149 12.1193 72.8653 12.2188C71.8248 12.3809 70.9417 11.4853 71.0992 10.4334C71.1976 9.77662 71.7292 9.24212 72.3788 9.14262C73.4193 8.98056 74.3024 9.87613 74.1449 10.9281ZM77.9077 12.5856C77.8092 13.2423 77.2777 13.7768 76.6281 13.8763C75.5876 14.0355 74.7045 13.1428 74.8648 12.0909C74.9632 11.4341 75.4948 10.8996 76.1416 10.7973C77.1821 10.6352 78.068 11.5308 77.9077 12.5827V12.5856Z" fill="#065BAA"/>
</g>
<defs>
<clipPath id="clip0_168_185">
<rect width="119" height="19" fill="white"/>
</clipPath>
</defs>
</svg>
